<svg width="24" height="24" viewBox="0 0 24 24" fill="none" xmlns="http://www.w3.org/2000/svg">
<path d="M20.95 8.30447C20.9399 7.54709 20.7981 6.79724 20.531 6.08847C20.2993 5.49062 19.9455 4.94767 19.4922 4.4943C19.0388 4.04093 18.4958 3.68712 17.898 3.45547C17.1983 3.19283 16.4592 3.05081 15.712 3.03547C14.75 2.99247 14.445 2.98047 12.003 2.98047C9.561 2.98047 9.248 2.98047 8.293 3.03547C7.54616 3.05092 6.80735 3.19294 6.108 3.45547C5.51006 3.68696 4.96702 4.04071 4.51363 4.4941C4.06024 4.94749 3.70649 5.49053 3.475 6.08847C3.21183 6.7876 3.07012 7.52658 3.056 8.27347C3.013 9.23647 3 9.54147 3 11.9835C3 14.4255 3 14.7375 3.056 15.6935C3.071 16.4415 3.212 17.1795 3.475 17.8805C3.70688 18.4782 4.0609 19.021 4.51444 19.4742C4.96798 19.9274 5.51106 20.281 6.109 20.5125C6.80643 20.7857 7.54537 20.9378 8.294 20.9625C9.257 21.0055 9.562 21.0185 12.004 21.0185C14.446 21.0185 14.759 21.0185 15.714 20.9625C16.4612 20.9478 17.2004 20.8061 17.9 20.5435C18.4977 20.3116 19.0405 19.9576 19.4938 19.5043C19.9472 19.051 20.3011 18.5082 20.533 17.9105C20.796 17.2105 20.937 16.4725 20.952 15.7235C20.995 14.7615 21.008 14.4565 21.008 12.0135C21.006 9.57147 21.006 9.26147 20.95 8.30447ZM11.997 16.6015C9.443 16.6015 7.374 14.5325 7.374 11.9785C7.374 9.42447 9.443 7.35547 11.997 7.35547C13.2231 7.35547 14.399 7.84253 15.266 8.70951C16.1329 9.5765 16.62 10.7524 16.62 11.9785C16.62 13.2046 16.1329 14.3804 15.266 15.2474C14.399 16.1144 13.2231 16.6015 11.997 16.6015ZM16.804 8.26247C16.6624 8.2626 16.5222 8.23481 16.3913 8.18068C16.2605 8.12655 16.1416 8.04715 16.0414 7.94702C15.9413 7.8469 15.8619 7.72801 15.8078 7.59716C15.7537 7.46631 15.7259 7.32607 15.726 7.18447C15.726 7.04297 15.7539 6.90286 15.808 6.77213C15.8622 6.6414 15.9415 6.52262 16.0416 6.42256C16.1416 6.32251 16.2604 6.24314 16.3912 6.18899C16.5219 6.13484 16.662 6.10697 16.8035 6.10697C16.945 6.10697 17.0851 6.13484 17.2158 6.18899C17.3466 6.24314 17.4654 6.32251 17.5654 6.42256C17.6655 6.52262 17.7448 6.6414 17.799 6.77213C17.8531 6.90286 17.881 7.04297 17.881 7.18447C17.881 7.78047 17.399 8.26247 16.804 8.26247Z" fill="#FF4D00"/>
<path d="M11.9952 14.9826C13.6537 14.9826 14.9982 13.6381 14.9982 11.9796C14.9982 10.3211 13.6537 8.97656 11.9952 8.97656C10.3367 8.97656 8.99219 10.3211 8.99219 11.9796C8.99219 13.6381 10.3367 14.9826 11.9952 14.9826Z" fill="#EB5757"/>
</svg>
