<svg version="1.1" id="Layer_1" xmlns="http://www.w3.org/2000/svg" xmlns:xlink="http://www.w3.org/1999/xlink" x="0px" y="0px"
	 width="100%" viewBox="0 0 57 57" enable-background="new 0 0 57 57" xml:space="preserve">
<path fill="#000000" opacity="1.000000" stroke="none" 
	d="
M38.000957,58.000000 
	C25.334108,58.000000 13.167462,58.000000 1.000612,58.000000 
	C1.000408,39.000305 1.000408,20.000608 1.000204,1.000684 
	C19.999664,1.000456 38.999329,1.000456 57.999245,1.000228 
	C57.999496,19.999632 57.999496,38.999264 57.999748,57.999451 
	C51.500385,58.000000 45.000774,58.000000 38.000957,58.000000 
M43.112183,49.999645 
	C47.848576,50.189754 50.066479,47.949821 50.023781,43.177589 
	C49.941971,34.033813 49.951057,24.888420 50.019955,15.744432 
	C50.053581,11.281694 48.092846,8.979875 43.533081,8.992455 
	C34.222382,9.018147 24.911444,9.027393 15.600836,8.988175 
	C11.106208,8.969243 8.968793,11.120280 8.988530,15.610258 
	C9.028728,24.754589 8.977239,33.899300 9.008588,43.043701 
	C9.026054,48.138405 10.963706,49.981621 16.252703,49.994072 
	C24.898373,50.014427 33.544125,49.999676 43.112183,49.999645 
z"/>
<path fill="#4278E4" opacity="1.000000" stroke="none" 
	d="
M42.651012,49.999695 
	C33.544125,49.999676 24.898373,50.014427 16.252703,49.994072 
	C10.963706,49.981621 9.026054,48.138405 9.008588,43.043701 
	C8.977239,33.899300 9.028728,24.754589 8.988530,15.610258 
	C8.968793,11.120280 11.106208,8.969243 15.600836,8.988175 
	C24.911444,9.027393 34.222382,9.018147 43.533081,8.992455 
	C48.092846,8.979875 50.053581,11.281694 50.019955,15.744432 
	C49.951057,24.888420 49.941971,34.033813 50.023781,43.177589 
	C50.066479,47.949821 47.848576,50.189754 42.651012,49.999695 
M23.800585,39.660107 
	C26.191660,38.275120 29.168268,37.380978 30.836933,35.390404 
	C33.356621,32.384640 36.253983,28.744432 36.618969,25.134079 
	C37.036613,21.002853 32.563282,19.156477 28.767170,18.458153 
	C26.693247,18.076637 24.421886,18.768393 21.510307,19.045559 
	C22.033184,26.330740 22.519344,33.104336 23.800585,39.660107 
z"/>
<path fill="#000000" opacity="1.000000" stroke="none" 
	d="
M23.403044,39.769020 
	C22.519344,33.104336 22.033184,26.330740 21.510307,19.045559 
	C24.421886,18.768393 26.693247,18.076637 28.767170,18.458153 
	C32.563282,19.156477 37.036613,21.002853 36.618969,25.134079 
	C36.253983,28.744432 33.356621,32.384640 30.836933,35.390404 
	C29.168268,37.380978 26.191660,38.275120 23.403044,39.769020 
z"/>
</svg>